<?xml version="1.0" standalone="no"?>
<!DOCTYPE svg PUBLIC "-//W3C//DTD SVG 20010904//EN"
 "http://www.w3.org/TR/2001/REC-SVG-20010904/DTD/svg10.dtd">
<svg version="1.0" xmlns="http://www.w3.org/2000/svg"
 width="1792.000000pt" height="1792.000000pt" viewBox="0 0 1792.000000 1792.000000"
 preserveAspectRatio="xMidYMid meet">
<metadata>
Created by potrace 1.11, written by Peter Selinger 2001-2013
</metadata>
<g transform="translate(0.000000,1792.000000) scale(0.100000,-0.100000)"
fill="#000000" stroke="none">
<path d="M10368 13835 c-2 -2 -64 -6 -138 -9 -74 -4 -151 -8 -170 -11 -34 -4
-120 -14 -190 -20 -58 -5 -133 -15 -165 -21 -16 -3 -43 -7 -60 -9 -67 -9 -111
-15 -135 -20 -14 -3 -36 -7 -50 -10 -30 -5 -64 -12 -105 -21 -16 -3 -39 -7
-50 -9 -11 -1 -20 -3 -20 -4 0 -2 -51 -12 -72 -13 -7 -1 -13 -4 -13 -8 0 -3
-8 -6 -17 -6 -10 -1 -29 -4 -43 -7 -14 -4 -45 -11 -70 -17 -25 -6 -79 -21
-120 -34 -68 -22 -149 -46 -175 -52 -34 -7 -41 -10 -47 -18 -3 -5 -14 -10 -25
-11 -10 -1 -29 -7 -43 -12 -14 -6 -52 -20 -85 -32 -33 -12 -73 -28 -90 -35
-16 -8 -64 -28 -105 -46 -93 -39 -338 -162 -391 -195 -21 -14 -43 -25 -49 -25
-5 0 -10 -4 -10 -8 0 -5 -11 -14 -25 -20 -23 -11 -253 -160 -265 -172 -15 -16
-99 -80 -104 -80 -4 0 -20 -12 -38 -27 -17 -16 -41 -37 -54 -48 -13 -11 -38
-31 -55 -45 -92 -70 -391 -382 -504 -525 -22 -27 -47 -59 -57 -70 -9 -11 -48
-63 -87 -115 -38 -52 -74 -99 -78 -105 -4 -5 -21 -30 -38 -55 -16 -25 -34 -48
-40 -52 -7 -5 -7 -8 0 -8 6 0 2 -5 -7 -11 -10 -5 -18 -14 -18 -19 0 -9 -36
-66 -65 -105 -8 -10 -15 -25 -15 -32 0 -6 -6 -16 -13 -20 -7 -4 -18 -19 -24
-33 -7 -14 -27 -50 -44 -80 -88 -152 -115 -205 -221 -429 -66 -138 -201 -494
-229 -599 -1 -4 -3 -11 -5 -17 -42 -145 -59 -206 -70 -270 -3 -16 -10 -38 -16
-48 -5 -10 -7 -21 -5 -24 3 -2 1 -20 -5 -40 -11 -40 -16 -63 -24 -113 -3 -19
-7 -37 -9 -40 -2 -3 -6 -26 -10 -50 -3 -25 -10 -72 -15 -105 -5 -33 -12 -78
-15 -100 -4 -22 -8 -50 -10 -62 -2 -12 -7 -57 -10 -100 -4 -43 -9 -85 -10 -94
-9 -48 -19 -303 -19 -499 0 -249 10 -464 30 -625 4 -27 8 -66 10 -85 2 -19 8
-69 14 -110 21 -139 29 -190 36 -211 2 -10 7 -32 10 -50 8 -51 18 -99 30 -149
3 -14 8 -40 11 -57 3 -18 9 -33 13 -33 5 0 7 -7 6 -16 -1 -9 6 -46 17 -83 10
-36 21 -78 24 -93 3 -16 10 -28 15 -28 5 0 7 -4 4 -9 -3 -4 13 -62 35 -127 23
-66 41 -127 42 -136 1 -10 5 -18 9 -18 4 0 8 -7 8 -15 0 -8 4 -23 9 -33 8 -15
21 -46 26 -62 1 -3 9 -22 18 -44 9 -21 17 -42 17 -45 0 -4 8 -25 18 -47 11
-21 32 -68 48 -104 34 -74 141 -287 172 -342 12 -21 32 -55 43 -75 96 -168
271 -433 291 -441 4 -2 8 -8 8 -13 0 -9 54 -84 70 -99 3 -3 17 -21 30 -40 13
-19 27 -37 30 -40 3 -3 25 -30 50 -60 25 -30 50 -61 57 -68 7 -7 29 -34 50
-60 49 -61 342 -354 412 -412 30 -25 60 -51 67 -58 7 -7 73 -57 146 -112 73
-55 138 -104 145 -110 7 -5 15 -10 18 -10 3 0 33 -18 65 -40 85 -58 280 -171
280 -162 0 4 4 2 8 -4 4 -6 39 -26 77 -45 39 -18 73 -37 76 -42 3 -5 8 -8 10
-7 6 2 65 -22 194 -80 80 -36 108 -47 135 -55 14 -3 35 -10 48 -16 12 -5 32
-13 45 -18 18 -8 54 -20 77 -26 3 -1 12 -4 20 -8 8 -3 56 -17 105 -32 50 -14
101 -30 115 -35 14 -5 36 -11 50 -14 14 -2 32 -7 40 -10 8 -3 26 -8 40 -10 14
-3 50 -11 80 -19 30 -9 69 -18 85 -20 17 -3 64 -12 105 -21 41 -8 89 -17 105
-20 17 -2 39 -7 50 -9 11 -3 47 -8 80 -12 32 -4 68 -9 79 -11 11 -2 40 -6 65
-9 25 -3 60 -7 76 -9 17 -2 64 -7 105 -11 41 -3 89 -8 105 -10 126 -17 590
-25 740 -12 44 4 150 9 235 12 85 3 178 7 205 10 28 2 86 7 130 10 83 7 136
12 195 19 19 3 60 8 90 11 65 8 96 12 130 19 14 2 48 7 75 11 28 3 57 8 65 10
8 3 31 7 50 9 42 6 125 23 125 26 0 1 14 3 30 5 36 4 34 4 210 49 77 20 161
42 188 50 26 8 47 12 47 8 0 -4 4 -2 8 3 4 6 34 18 67 27 34 10 74 22 90 29
17 7 32 13 35 14 3 1 20 6 38 10 17 4 32 12 32 18 0 6 3 7 7 4 3 -4 12 -2 20
4 7 6 13 9 13 5 0 -3 25 5 55 19 30 13 55 21 55 18 0 -3 8 1 18 9 9 9 28 19
42 23 55 15 332 152 433 214 37 22 69 41 72 41 5 0 238 152 245 160 3 3 21 17
40 30 19 13 40 29 46 35 6 5 22 17 34 25 12 8 32 23 43 33 68 56 124 105 145
125 12 12 25 22 28 22 14 0 331 330 384 400 14 18 35 44 48 59 13 14 57 71 99
126 42 55 79 102 82 105 3 3 11 12 16 21 6 9 54 81 108 161 53 79 97 149 97
156 0 6 6 15 13 19 12 8 20 20 70 113 17 30 39 67 49 83 11 15 16 27 12 27 -4
0 -1 8 7 18 8 9 21 29 29 45 7 15 16 27 19 27 3 0 6 -501 5 -1114 l-1 -1114
26 -4 c22 -2 2661 -2 2684 1 4 1 7 2079 7 4620 l0 4618 -1358 0 -1359 0 0
-1098 c0 -605 -2 -1101 -4 -1104 -3 -2 -20 26 -39 63 -19 37 -37 69 -40 72 -3
3 -12 19 -20 35 -8 17 -19 37 -26 45 -6 8 -22 35 -35 60 -13 25 -32 54 -41 64
-10 11 -18 23 -18 27 0 11 -81 133 -94 141 -6 4 -8 8 -3 8 7 0 -25 45 -162
230 -51 69 -175 224 -204 255 -6 8 -39 44 -72 81 -113 127 -330 336 -361 348
-8 3 -14 9 -14 14 0 4 -32 33 -72 63 -39 29 -76 59 -82 64 -6 6 -27 22 -46 35
-19 13 -44 32 -54 42 -11 10 -25 18 -32 18 -7 0 -14 3 -16 8 -3 7 -133 96
-173 118 -41 22 -70 39 -75 44 -32 32 -559 283 -620 295 -13 3 -73 25 -135 50
-11 4 -25 9 -31 10 -6 2 -53 16 -105 33 -52 16 -143 42 -204 57 -60 15 -117
30 -125 33 -19 7 -72 18 -175 37 -11 2 -20 4 -20 5 0 1 -16 4 -35 6 -19 3 -41
5 -47 6 -7 1 -13 4 -13 7 0 3 -18 7 -40 8 -22 1 -52 5 -67 8 -27 6 -59 11
-133 21 -19 2 -48 6 -65 8 -16 3 -57 7 -90 10 -33 4 -73 8 -90 10 -16 3 -73 8
-125 11 -52 4 -115 9 -140 12 -51 5 -887 13 -892 8z m472 -2209 c41 -2 82 -7
90 -10 8 -3 33 -8 55 -10 35 -4 223 -41 250 -50 42 -12 101 -30 105 -31 91
-25 222 -75 232 -90 4 -5 8 -6 8 -2 0 16 309 -154 318 -175 2 -5 8 -8 13 -8
10 0 95 -60 155 -110 144 -119 293 -263 393 -380 100 -118 101 -120 101 -130
0 -6 5 -10 10 -10 6 0 10 -5 10 -11 0 -6 11 -25 25 -43 14 -18 25 -38 25 -43
0 -6 7 -16 15 -23 8 -7 15 -21 15 -31 0 -11 5 -19 10 -19 6 0 13 -8 17 -17 3
-10 23 -56 45 -101 21 -46 38 -89 38 -96 0 -7 4 -16 9 -21 8 -10 58 -150 65
-183 1 -9 6 -24 9 -32 3 -8 9 -28 13 -45 4 -16 9 -37 11 -45 2 -8 6 -31 9 -50
4 -19 10 -40 16 -47 5 -7 7 -17 3 -23 -4 -6 -3 -16 2 -23 5 -7 9 -24 8 -39 0
-16 3 -28 8 -28 4 0 6 -3 3 -8 -2 -4 0 -29 5 -55 4 -26 11 -73 14 -105 3 -31
8 -75 11 -97 19 -172 26 -645 11 -820 -15 -178 -33 -329 -44 -375 -3 -14 -7
-32 -8 -40 -7 -59 -41 -200 -48 -200 -4 0 -6 -4 -3 -8 5 -9 -21 -119 -32 -137
-4 -5 -7 -14 -8 -20 -3 -16 -35 -107 -51 -145 -34 -80 -137 -285 -144 -288 -5
-2 -9 -9 -9 -16 0 -13 -137 -199 -151 -204 -5 -2 -9 -8 -9 -13 0 -12 -267
-279 -334 -334 -89 -73 -231 -177 -256 -188 -14 -6 -34 -19 -46 -29 -21 -19
-219 -121 -294 -151 -24 -10 -90 -34 -146 -52 -56 -19 -116 -41 -133 -50 -17
-8 -31 -13 -31 -10 0 4 -6 3 -12 -2 -7 -4 -17 -8 -23 -10 -5 -1 -21 -4 -35 -7
-58 -13 -138 -28 -185 -34 -104 -13 -359 -6 -470 13 -159 28 -350 78 -397 105
-10 6 -27 10 -37 10 -11 0 -23 4 -26 10 -3 6 -16 10 -28 10 -12 0 -31 7 -41
15 -10 8 -23 12 -27 9 -5 -3 -9 -1 -9 4 0 8 -18 16 -50 22 -13 3 -127 66 -142
78 -10 9 -18 12 -18 9 0 -6 -124 72 -147 92 -7 6 -15 11 -17 11 -7 0 -123 86
-148 109 -9 9 -31 27 -48 41 -77 61 -301 292 -370 381 -14 18 -31 38 -37 45
-7 7 -13 15 -13 18 0 3 -20 34 -45 69 -25 36 -45 69 -45 75 0 6 -3 12 -7 14
-9 4 -93 172 -121 243 -67 169 -131 383 -148 498 -10 67 -13 84 -19 117 -7 38
-11 67 -19 145 -3 28 -8 75 -12 105 -11 102 -14 204 -14 425 0 218 3 285 15
400 3 33 8 83 10 110 2 28 7 64 11 80 3 17 7 44 9 60 1 17 4 30 5 30 1 0 3 17
6 37 4 36 50 243 63 286 1 1 1 3 1 5 -1 4 60 182 69 202 29 66 34 81 33 88 -2
5 7 22 18 38 12 16 19 29 16 29 -2 0 17 39 43 88 64 118 74 134 88 150 7 7 28
36 47 65 20 29 47 66 61 82 67 78 165 183 225 240 57 55 89 83 181 160 114 94
259 188 429 276 25 13 47 24 50 24 3 1 22 9 42 18 21 10 42 17 48 17 5 0 10 4
10 8 0 4 10 9 22 9 13 1 24 7 26 13 2 5 8 8 13 5 4 -3 22 1 38 10 17 8 38 17
48 18 10 2 25 6 33 10 23 8 123 39 143 43 48 11 66 15 117 23 62 11 113 18
203 27 34 3 63 7 65 9 1 1 17 1 35 -1 17 -2 66 -5 107 -8z"/>
<path d="M23 13552 l-23 -3 0 -4620 0 -4619 1358 0 1359 0 1 1413 c0 776 1
1419 1 1427 1 8 19 -12 40 -45 22 -33 44 -65 50 -71 5 -7 7 -15 4 -18 -4 -3
-1 -6 5 -6 7 0 12 -6 12 -14 0 -8 3 -16 8 -18 4 -1 39 -52 77 -113 38 -60 73
-113 78 -116 5 -3 8 -10 8 -15 -1 -5 4 -16 11 -25 7 -8 18 -24 25 -35 6 -10
46 -73 88 -139 42 -66 82 -129 88 -139 7 -11 15 -25 20 -30 4 -6 25 -38 46
-71 21 -33 73 -113 115 -178 42 -65 76 -122 76 -128 0 -5 5 -9 10 -9 6 0 10
-7 10 -15 0 -8 4 -15 9 -15 5 0 11 -8 14 -17 4 -10 34 -58 67 -108 33 -49 63
-98 67 -107 3 -10 9 -18 14 -18 5 0 9 -7 9 -15 0 -8 5 -15 11 -15 5 0 8 -4 5
-9 -4 -5 -2 -11 3 -13 4 -1 32 -41 61 -88 51 -82 82 -130 186 -290 27 -41 54
-82 59 -92 6 -10 34 -55 63 -100 29 -46 84 -132 123 -191 38 -60 69 -112 69
-117 0 -4 6 -13 14 -19 8 -7 36 -48 62 -91 27 -44 52 -80 56 -80 5 0 8 -9 8
-19 0 -10 7 -22 16 -25 8 -3 13 -10 10 -15 -3 -4 3 -16 14 -26 11 -10 20 -24
20 -32 0 -7 5 -13 10 -13 6 0 10 -4 10 -9 0 -8 48 -86 67 -110 6 -8 2964 -7
2975 0 6 4 -6 15 -26 24 -20 10 -36 21 -36 26 0 5 -7 9 -15 9 -8 0 -15 5 -15
10 0 6 -4 10 -10 10 -11 0 -258 183 -309 230 -10 8 -44 37 -76 65 -33 27 -82
70 -109 95 -92 84 -360 360 -350 360 3 0 -41 51 -79 91 -9 11 -17 21 -17 24 0
2 -10 15 -22 29 -48 53 -64 72 -88 106 -13 19 -32 44 -42 55 -10 11 -40 52
-68 90 -28 39 -57 78 -65 88 -8 9 -15 21 -15 25 0 5 -8 17 -17 28 -17 18 -79
109 -113 164 -33 55 -77 125 -112 181 -21 33 -35 59 -31 59 3 0 -1 8 -9 18 -9
9 -25 35 -35 57 -17 34 -78 150 -111 211 -6 10 -21 42 -33 69 -13 28 -30 58
-38 68 -8 9 -11 17 -8 17 3 0 -10 35 -30 78 -49 108 -130 315 -169 432 -8 25
-18 52 -21 60 -3 8 -7 20 -8 25 -1 6 -9 30 -18 55 -8 25 -31 106 -52 180 -20
74 -41 151 -47 170 -5 20 -11 48 -11 63 -1 15 -5 27 -9 27 -4 0 -6 8 -6 18 0
9 -2 28 -6 42 -8 36 -23 110 -30 150 -3 19 -8 46 -11 60 -10 49 -18 106 -21
140 -1 19 -3 35 -4 35 -1 0 -4 24 -6 54 -3 30 -10 63 -15 73 -7 12 -6 18 1 18
6 0 8 5 4 11 -3 6 -8 35 -10 63 -2 29 -6 70 -8 92 -25 196 -25 854 0 1082 3
26 7 72 9 102 2 30 5 55 6 55 0 0 2 14 4 30 5 55 15 130 21 160 4 17 7 47 8
67 0 21 3 38 6 38 3 0 6 8 6 18 1 27 20 137 24 137 1 0 3 9 4 20 4 29 15 86
21 115 3 14 8 36 11 50 3 14 12 52 21 85 8 33 17 70 19 81 2 12 13 51 24 86
11 35 21 73 23 83 2 11 7 27 10 35 3 8 17 53 32 100 14 47 29 92 32 100 3 8 7
20 9 27 3 16 86 233 125 328 7 17 13 32 14 35 10 29 151 329 164 350 6 8 20
35 32 60 13 25 25 47 28 50 3 3 24 39 45 80 22 41 57 102 77 135 21 33 53 86
71 118 18 31 36 57 40 57 5 0 8 7 8 15 0 8 5 15 10 15 6 0 10 7 10 15 0 8 5
15 10 15 6 0 10 4 10 10 0 8 79 126 105 157 5 7 16 19 23 28 7 8 9 15 5 15 -4
0 -3 4 3 8 7 4 33 36 60 72 26 36 50 67 53 70 4 3 22 25 41 50 19 25 37 47 40
50 4 3 14 16 23 29 15 23 15 25 -16 53 -90 84 -191 174 -204 182 -16 8 -54 39
-79 64 -7 6 -17 12 -22 12 -6 0 -12 3 -14 8 -4 11 -106 82 -117 82 -5 0 -11 3
-13 8 -4 10 -86 62 -98 62 -5 0 -10 3 -10 8 0 4 -10 12 -23 18 -12 6 -83 42
-157 80 -75 38 -151 75 -170 83 -49 21 -200 80 -203 80 -1 0 -15 5 -32 11 -16
7 -39 14 -50 16 -11 2 -31 8 -45 14 -53 21 -199 56 -335 81 -134 25 -184 31
-262 33 -40 0 -73 4 -73 7 0 3 -29 5 -65 5 -36 -1 -65 1 -65 4 0 3 -42 6 -93
7 -50 1 -150 5 -222 9 -129 6 -4040 12 -4082 6z m3432 -2025 c91 -13 125 -19
175 -28 30 -6 62 -13 70 -16 8 -3 24 -8 35 -10 59 -10 198 -75 275 -127 67
-45 191 -175 224 -235 5 -9 12 -18 15 -21 30 -25 134 -255 144 -316 1 -10 5
-23 9 -29 14 -23 22 -120 22 -260 0 -137 -4 -189 -19 -252 -3 -13 -7 -32 -10
-44 -10 -47 -25 -88 -66 -175 -10 -23 -19 -44 -19 -47 0 -20 -143 -211 -200
-267 -90 -89 -206 -158 -330 -195 -30 -9 -62 -19 -70 -22 -8 -4 -24 -8 -35
-10 -11 -2 -55 -10 -98 -19 -42 -8 -87 -15 -100 -14 -12 1 -24 1 -27 0 -35
-14 -719 -19 -728 -6 -4 7 -7 2006 -3 2088 1 15 31 16 354 12 193 -2 366 -5
382 -7z"/>
</g>
</svg>
