<?xml version="1.0" encoding="utf-8"?>
<!-- Generator: Adobe Illustrator 22.1.0, SVG Export Plug-In . SVG Version: 6.00 Build 0)  -->
<svg version="1.1" id="OBJECTS" xmlns="http://www.w3.org/2000/svg" xmlns:xlink="http://www.w3.org/1999/xlink" x="0px" y="0px"
	 viewBox="0 0 293.7 265.7" style="enable-background:new 0 0 293.7 265.7;" xml:space="preserve">
<style type="text/css">
	.st0{opacity:0.9;fill:url(#SVGID_1_);}
	.st1{opacity:0.8;fill:url(#SVGID_2_);}
	.st2{opacity:0.8;fill:url(#SVGID_3_);}
</style>
<g>
	<g>
		
			<linearGradient id="SVGID_1_" gradientUnits="userSpaceOnUse" x1="598.0872" y1="-1768.7625" x2="836.6875" y2="-1768.7625" gradientTransform="matrix(0.289 -0.9573 0.9573 0.289 1637.6477 1316.2745)">
			<stop  offset="0" style="stop-color:#D3302F"/>
			<stop  offset="0.3878" style="stop-color:#D02E2D"/>
			<stop  offset="0.725" style="stop-color:#C52725"/>
			<stop  offset="1" style="stop-color:#B61D1B"/>
		</linearGradient>
		<path class="st0" d="M12.8,188.2l210.3,76.3c14.1,5.1,28.5-7,25.8-21.7L209.9,22.5C207.3,7.7,189.7,1.3,178.2,11L7,155
			C-4.5,164.6-1.3,183.1,12.8,188.2z"/>
		<radialGradient id="SVGID_2_" cx="-7.7897" cy="264.6391" r="376.7235" gradientUnits="userSpaceOnUse">
			<stop  offset="0" style="stop-color:#F9ED32"/>
			<stop  offset="6.923389e-02" style="stop-color:#F8D933"/>
			<stop  offset="0.211" style="stop-color:#F7A534"/>
			<stop  offset="0.4114" style="stop-color:#F45337"/>
			<stop  offset="0.4486" style="stop-color:#F44337"/>
			<stop  offset="0.7628" style="stop-color:#DE3632"/>
			<stop  offset="1" style="stop-color:#D3302F"/>
		</radialGradient>
		<path class="st1" d="M123.4,12.3L11.5,206.1c-7.5,13,1.9,29.2,16.9,29.2h223.8c15,0,24.4-16.2,16.9-29.2L157.2,12.3
			C149.7-0.7,130.9-0.7,123.4,12.3z"/>
		
			<radialGradient id="SVGID_3_" cx="-13.5349" cy="267.9601" r="390.9013" gradientTransform="matrix(0.9816 -0.1912 0.1912 0.9816 -19.5708 31.1043)" gradientUnits="userSpaceOnUse">
			<stop  offset="0" style="stop-color:#FFC200"/>
			<stop  offset="0.233" style="stop-color:#FFAE00"/>
			<stop  offset="0.4486" style="stop-color:#FF9800"/>
			<stop  offset="0.6234" style="stop-color:#FF7E08"/>
			<stop  offset="0.8639" style="stop-color:#FF6011"/>
			<stop  offset="1" style="stop-color:#FF5515"/>
		</radialGradient>
		<path class="st2" d="M102,13.7L26.5,233.2c-5.1,14.7,7.7,29.4,23,26.4l227.9-44.4c15.3-3,21.6-21.4,11.4-33.1L136.3,7
			C126.1-4.8,107-1.1,102,13.7z"/>
	</g>
</g>
</svg>
