<?xml version="1.0" encoding="utf-8"?>
<!-- Generator: Adobe Illustrator 22.1.0, SVG Export Plug-In . SVG Version: 6.00 Build 0)  -->
<svg version="1.1" id="Слой_1" xmlns="http://www.w3.org/2000/svg" xmlns:xlink="http://www.w3.org/1999/xlink" x="0px" y="0px"
	 viewBox="0 0 313.8 347.1" style="enable-background:new 0 0 313.8 347.1;" xml:space="preserve">
<style type="text/css">
	.st0{clip-path:url(#SVGID_2_);}
	.st1{opacity:0.51;clip-path:url(#SVGID_4_);}
	.st2{clip-path:url(#SVGID_6_);fill:#66E9FF;}
	.st3{clip-path:url(#SVGID_8_);fill:#66E9FF;}
	.st4{clip-path:url(#SVGID_10_);fill:#66E9FF;}
	.st5{opacity:0.58;clip-path:url(#SVGID_4_);}
	.st6{clip-path:url(#SVGID_12_);fill:#66E9FF;}
	.st7{clip-path:url(#SVGID_2_);fill:#1291C4;}
	.st8{clip-path:url(#SVGID_2_);fill:#19CAF6;}
</style>
<g>
	<defs>
		<rect id="SVGID_1_" width="313.8" height="347.1"/>
	</defs>
	<clipPath id="SVGID_2_">
		<use xlink:href="#SVGID_1_"  style="overflow:visible;"/>
	</clipPath>
	<g class="st0">
		<defs>
			<rect id="SVGID_3_" width="313.8" height="347.1"/>
		</defs>
		<clipPath id="SVGID_4_">
			<use xlink:href="#SVGID_3_"  style="overflow:visible;"/>
		</clipPath>
		<g class="st1">
			<g>
				<defs>
					<rect id="SVGID_5_" x="158.8" y="257" width="136.4" height="90"/>
				</defs>
				<clipPath id="SVGID_6_">
					<use xlink:href="#SVGID_5_"  style="overflow:visible;"/>
				</clipPath>
				
					<rect x="157.2" y="288.1" transform="matrix(0.8835 -0.4685 0.4685 0.8835 -115.0562 141.5285)" class="st2" width="139.6" height="27.9"/>
			</g>
		</g>
		<g class="st1">
			<g>
				<defs>
					<rect id="SVGID_7_" x="10.8" y="3.4" width="136.4" height="90"/>
				</defs>
				<clipPath id="SVGID_8_">
					<use xlink:href="#SVGID_7_"  style="overflow:visible;"/>
				</clipPath>
				
					<rect x="9.2" y="34.5" transform="matrix(0.8835 -0.4685 0.4685 0.8835 -13.4794 42.6324)" class="st3" width="139.6" height="27.9"/>
			</g>
		</g>
		<g class="st1">
			<g>
				<defs>
					<rect id="SVGID_9_" x="3.5" y="146.1" width="27.9" height="103.9"/>
				</defs>
				<clipPath id="SVGID_10_">
					<use xlink:href="#SVGID_9_"  style="overflow:visible;"/>
				</clipPath>
				<rect x="3.5" y="146.1" class="st4" width="27.9" height="103.9"/>
			</g>
		</g>
		<g class="st5">
			<g>
				<defs>
					<rect id="SVGID_11_" x="287.5" y="121.5" width="23.6" height="129.1"/>
				</defs>
				<clipPath id="SVGID_12_">
					<use xlink:href="#SVGID_11_"  style="overflow:visible;"/>
				</clipPath>
				<rect x="287.5" y="121.5" class="st6" width="23.6" height="129.1"/>
			</g>
		</g>
	</g>
	<polygon class="st7" points="2.4,84.4 0,153.3 28.6,154.3 30.4,101.2 79,73.2 64.6,48.4 	"/>
	<polygon class="st8" points="42,196.3 26.2,196.3 26.2,100.3 84.5,66.7 92.4,80.3 42,109.4 	"/>
	<polygon class="st7" points="276.2,235.5 216.2,270.1 233.9,300.8 310.9,256.3 313.8,171.1 278.4,169.9 	"/>
	<polygon class="st8" points="227,278 219.1,264.3 269.5,235.2 269.5,148.4 285.3,148.4 285.3,244.3 	"/>
	<polygon class="st8" points="155.7,0 125.5,17.4 133.4,31.1 155.7,18.2 295.5,99 303.4,85.3 	"/>
	<polygon class="st7" points="156.7,339.9 90.2,301.5 100.4,283.8 156.7,316.3 180.6,302.4 190.9,320.2 	"/>
</g>
</svg>
