<?xml version="1.0" encoding="utf-8"?>
<!-- Generator: Adobe Illustrator 22.1.0, SVG Export Plug-In . SVG Version: 6.00 Build 0)  -->
<svg version="1.1" id="OBJECTS" xmlns="http://www.w3.org/2000/svg" xmlns:xlink="http://www.w3.org/1999/xlink" x="0px" y="0px"
	 viewBox="0 0 258.8 258.8" style="enable-background:new 0 0 258.8 258.8;" xml:space="preserve">
<style type="text/css">
	.st0{opacity:0.7;fill:url(#SVGID_1_);}
	.st1{opacity:0.7;fill:url(#SVGID_2_);}
	.st2{opacity:0.7;fill:url(#SVGID_3_);}
</style>
<g>
	<g>
		<g>
			<linearGradient id="SVGID_1_" gradientUnits="userSpaceOnUse" x1="9.5352" y1="126.8552" x2="258.8175" y2="126.8552">
				<stop  offset="0" style="stop-color:#F9ED32"/>
				<stop  offset="0.2427" style="stop-color:#E5F046"/>
				<stop  offset="0.7366" style="stop-color:#B3F879"/>
				<stop  offset="1" style="stop-color:#95FC97"/>
			</linearGradient>
			<path class="st0" d="M246,78.4c-2.3-3.5-4.9-6.7-7.7-9.7l0,0c0,0-45.9-52.3-123.7-66.7l0,0C93.5-2.8,69.9,0.9,49.9,14.4
				c-20,13.4-32.3,33.8-35.8,55.3C-1.8,147,29.1,209,29.3,209.4c1.7,3.7,3.7,7.3,6,10.8c19.1,28.3,54.3,39.6,86.7,30.4
				c0,0,52.5-12.9,111.4-71.4l0,0C261.2,152.6,267.4,110.1,246,78.4z"/>
			
				<radialGradient id="SVGID_2_" cx="171.8264" cy="107.4885" r="197.3963" fx="38.3988" fy="252.9614" gradientTransform="matrix(1.0457 0 0 1 -43.2383 0)" gradientUnits="userSpaceOnUse">
				<stop  offset="0" style="stop-color:#F9ED32"/>
				<stop  offset="6.040615e-02" style="stop-color:#E5E834"/>
				<stop  offset="0.1841" style="stop-color:#B1DB39"/>
				<stop  offset="0.3587" style="stop-color:#5FC641"/>
				<stop  offset="0.4486" style="stop-color:#32BA46"/>
				<stop  offset="0.4889" style="stop-color:#3BC04D"/>
				<stop  offset="0.722" style="stop-color:#6CE075"/>
				<stop  offset="0.8998" style="stop-color:#8AF48E"/>
				<stop  offset="1" style="stop-color:#95FC97"/>
			</radialGradient>
			<path class="st1" d="M229.8,168.7c0-3.8-0.3-7.5-0.9-11.2l0,0c0,0-8.1-62.4-59.1-112.5l0,0c-13.5-14.4-33.1-23.5-54.9-23.5
				c-21.8,0-41.4,9-54.8,23.4C9.1,95,1,157.2,0.9,157.6c-0.6,3.6-0.9,7.3-0.9,11.1c0,30.9,20.8,57.1,49.7,66.6
				c0,0,45.9,16.8,119.6,2.7h0C203.7,232.1,229.8,203.3,229.8,168.7z"/>
			<linearGradient id="SVGID_3_" gradientUnits="userSpaceOnUse" x1="0.2743" y1="146.0968" x2="229.5374" y2="146.0968">
				<stop  offset="0" style="stop-color:#73E57B"/>
				<stop  offset="0.1123" style="stop-color:#73DC7E"/>
				<stop  offset="0.2939" style="stop-color:#73C487"/>
				<stop  offset="0.5222" style="stop-color:#739D96"/>
				<stop  offset="0.7854" style="stop-color:#7468AA"/>
				<stop  offset="1" style="stop-color:#7437BC"/>
			</linearGradient>
			<path class="st2" d="M191.7,46.4c-3.4-1.7-6.9-3.1-10.4-4.2l0,0c0,0-59.3-21-127.1,1.9l0,0C35.3,49.7,18.4,63.1,8.5,82.5
				c-9.8,19.4-10.6,41-3.9,59.5c21.6,68,73.4,103.4,73.7,103.6c3,2.2,6.1,4.1,9.5,5.8c27.6,14,60.4,7.2,81.9-14.3
				c0,0,35.7-33.4,56.4-105.5l0,0C236.4,98.3,222.5,62,191.7,46.4z"/>
		</g>
	</g>
</g>
</svg>
