<?xml version="1.0" encoding="utf-8"?>
<!-- Generator: Adobe Illustrator 22.1.0, SVG Export Plug-In . SVG Version: 6.00 Build 0)  -->
<svg version="1.1" id="Слой_1" xmlns="http://www.w3.org/2000/svg" xmlns:xlink="http://www.w3.org/1999/xlink" x="0px" y="0px"
	 viewBox="0 0 414.4 61.1" style="enable-background:new 0 0 414.4 61.1;" xml:space="preserve">
<style type="text/css">
	.st0{fill:#FFFFFF;}
	.st1{fill:#0058D7;}
</style>
<g>
	<path class="st0" d="M150,27.9c-0.5,0.2-0.9,0.4-1.4,0.5c-0.6,0.2-1.2,0.3-1.7,0.3s-1.1,0.1-1.7,0.1l-0.3,0c-3.2,0-5.9-1.1-8.2-3.2
		s-3.4-5-3.4-8.8c0-4,1.2-6.9,3.6-9c2.4-2,5-3,7.9-3h0.3c0.4,0,0.8,0,1.2,0.1c0.4,0,0.8,0.1,1.3,0.2c0.6,0.1,1.3,0.3,1.9,0.6
		s1.2,0.6,1.8,1v6.6H151c-0.1-0.2-0.3-0.3-0.5-0.5c-0.2-0.2-0.4-0.4-0.6-0.5c-0.5-0.4-1.1-0.8-1.8-1.1c-0.7-0.3-1.5-0.5-2.4-0.5
		c-1.8,0-3.2,0.7-4.1,2s-1.5,2.8-1.5,4.5c0,1.9,0.6,3.4,1.7,4.5c1.1,1,2.4,1.6,4,1.6c1.1,0,2.2-0.3,3-0.8c0.9-0.5,1.6-1,2.2-1.7h0.3
		v6.4C150.9,27.5,150.4,27.7,150,27.9z"/>
	<path class="st0" d="M164.7,25.3c-2.1-2.4-3.1-5.2-3.1-8.4c0-3.2,1-6,3.1-8.4s5.1-3.6,9.1-3.6h0.3c4,0,7.1,1.2,9.1,3.6
		s3.1,5.2,3.1,8.4c0,3.2-1,6-3.1,8.4c-2,2.4-5.1,3.6-9.1,3.6l-0.3,0C169.8,28.9,166.8,27.7,164.7,25.3z M174.6,23.4
		c0.2,0,0.5-0.1,0.7-0.2c1-0.3,2-0.9,2.8-1.9c0.9-1,1.3-2.5,1.3-4.4c0-2-0.4-3.4-1.3-4.4c-0.9-1-1.8-1.6-2.8-1.9
		c-0.2-0.1-0.5-0.1-0.7-0.2s-0.4-0.1-0.7-0.1c-0.2,0-0.5,0-0.7,0.1s-0.5,0.1-0.7,0.2c-1,0.3-1.9,0.9-2.7,1.9s-1.2,2.4-1.2,4.4
		c0,1.9,0.4,3.4,1.2,4.4c0.8,1,1.7,1.6,2.7,1.9c0.2,0.1,0.5,0.2,0.7,0.2c0.2,0,0.5,0.1,0.7,0.1C174.1,23.4,174.3,23.4,174.6,23.4z"
		/>
	<path class="st0" d="M197.4,5.5h0.3h6.7l8,12.9V5.5h0.3h6.1v22.7h-0.3H212l-8.1-13.1v13.1h-0.3h-6.1V5.5z"/>
	<path class="st0" d="M243.3,11.9h-0.3c-0.1-0.1-0.2-0.2-0.3-0.3c-0.1-0.1-0.2-0.2-0.3-0.3c-0.5-0.4-1.1-0.7-1.6-1
		c-0.5-0.3-1.1-0.4-1.7-0.4c-0.6,0-1,0.1-1.3,0.4c-0.3,0.2-0.5,0.5-0.6,0.7c-0.1,0.2-0.1,0.3-0.2,0.5s0,0.3,0,0.4
		c0,0.5,0.2,0.8,0.5,1.1c0.3,0.3,0.7,0.5,1.1,0.6c0.2,0.1,0.4,0.1,0.6,0.2s0.4,0.1,0.5,0.1c0.4,0.1,0.8,0.2,1.3,0.3
		c0.5,0.1,1,0.3,1.6,0.6c1,0.5,2,1.2,2.8,2.2c0.9,1,1.3,2.5,1.3,4.4c0,2.6-0.9,4.5-2.6,5.7c-1.7,1.2-3.7,1.7-5.9,1.7l-0.3,0
		c-0.6,0-1.2-0.1-1.7-0.2s-1.1-0.2-1.6-0.4c-0.8-0.3-1.6-0.6-2.4-1.1c-0.8-0.5-1.7-1.1-2.7-1.9l3-4.8h0.3c0.1,0.1,0.2,0.2,0.3,0.3
		c0.1,0.1,0.2,0.2,0.3,0.3c0.6,0.5,1.3,1,2,1.5s1.5,0.7,2.3,0.9c0.1,0,0.2,0,0.3,0c0.1,0,0.2,0,0.3,0c0.6,0,1-0.1,1.3-0.4
		c0.3-0.2,0.5-0.5,0.6-0.7c0.1-0.2,0.1-0.3,0.1-0.5c0-0.2,0-0.3,0-0.4c0-0.8-0.3-1.4-0.9-1.8c-0.6-0.3-1.3-0.6-2.2-0.9
		c0,0-0.1,0-0.2,0c-0.1,0-0.1,0-0.2,0c-0.3-0.1-0.7-0.2-1.1-0.3c-0.4-0.1-0.8-0.3-1.2-0.5c-1-0.5-1.9-1.1-2.8-2.1
		c-0.8-0.9-1.3-2.3-1.3-4.2c0-1.9,0.7-3.5,2.1-4.9c1.4-1.3,3.3-2,5.9-2h0.3c0.6,0,1.5,0.1,2.8,0.3s2.6,0.8,4,1.8c0,0,0,0,0.1,0.1
		c0,0,0.1,0,0.1,0.1L243.3,11.9z"/>
	<path class="st0" d="M264,5.5v13.4c0,0.2,0,0.5,0,0.9c0,0.4,0.1,0.7,0.2,1.1c0.2,0.6,0.5,1.2,1,1.7c0.5,0.5,1.2,0.8,2.2,0.8
		c1,0,1.8-0.3,2.2-0.8c0.5-0.5,0.8-1.1,1-1.7c0.1-0.4,0.2-0.8,0.2-1.1c0-0.4,0-0.7,0-0.9V5.5h0.3h6.3V19c0,3.4-0.9,5.9-2.8,7.4
		c-1.8,1.6-4.2,2.3-7.2,2.3l-0.3,0c-2.9,0-5.3-0.8-7.2-2.4c-1.9-1.6-2.8-4-2.8-7.4V5.5h0.3H264z"/>
	<path class="st0" d="M289.6,5.5h0.3h6.3v17.2h6.8v5.4h-0.3h-13.1V5.5z"/>
	<path class="st0" d="M316.8,11h-5V5.5h0.3h16.3V11h-5v17.2h-0.3h-6.3V11z"/>
	<path class="st0" d="M338.8,5.5h0.3h6.3v22.7h-0.3h-6.3V5.5z"/>
	<path class="st0" d="M357.7,5.5h0.3h6.7l8,12.9V5.5h0.3h6.1v22.7h-0.3h-6.6l-8.1-13.1v13.1h-0.3h-6.1V5.5z"/>
	<path class="st0" d="M414.3,15.1c0,0.2,0,0.5,0,0.7c0,0.3,0,0.6,0,0.9c0,0.6,0,1.4-0.1,2.1s-0.2,1.6-0.4,2.4
		c-0.5,1.9-1.6,3.7-3.2,5.3s-4.1,2.4-7.6,2.4l-0.3,0c-3.3,0-6.3-1-8.7-3s-3.7-4.9-3.7-8.8c0-3.6,1.1-6.5,3.2-8.8
		c2.1-2.2,5.1-3.4,8.8-3.4h0.3c2.3,0,4.4,0.5,6.3,1.4c1.8,0.9,3.3,2.3,4.3,4.1l-5.6,2.6h-0.3c-0.4-0.8-1-1.5-1.8-1.9
		c-0.8-0.5-1.7-0.7-2.8-0.7c-1.5,0-2.8,0.6-4,1.7c-1.1,1.1-1.7,2.7-1.7,4.9c0,2.2,0.6,3.8,1.7,5.1c1.1,1.2,2.5,1.9,4.2,1.9
		c1.2,0,2.3-0.4,3.2-1.1c0.9-0.7,1.5-1.6,1.7-2.7h-5.9v-5h0.3H414.3z"/>
</g>
<g>
	<path class="st0" d="M144.4,49.2c-0.2,1.5-0.7,2.7-1.7,3.5S140.5,54,139,54c-1.7,0-3-0.6-4-1.8s-1.5-2.8-1.5-4.8v-1.4
		c0-1.3,0.2-2.5,0.7-3.5s1.1-1.8,2-2.3s1.9-0.8,3-0.8c1.5,0,2.7,0.4,3.6,1.3s1.4,2,1.6,3.5h-1.9c-0.2-1.1-0.5-2-1.1-2.5
		c-0.5-0.5-1.3-0.8-2.3-0.8c-1.2,0-2.1,0.4-2.8,1.3c-0.7,0.9-1,2.1-1,3.8v1.4c0,1.5,0.3,2.8,1,3.7s1.5,1.4,2.7,1.4
		c1,0,1.8-0.2,2.4-0.7s0.9-1.3,1.1-2.5H144.4z"/>
	<path class="st0" d="M146.2,48.4c0-1,0.2-2,0.6-2.8s1-1.5,1.7-1.9S150,43,151,43c1.4,0,2.6,0.5,3.5,1.5s1.3,2.3,1.3,4v0.1
		c0,1-0.2,2-0.6,2.8s-1,1.5-1.7,1.9S151.9,54,151,54c-1.4,0-2.6-0.5-3.5-1.5s-1.3-2.3-1.3-4V48.4z M148,48.6c0,1.2,0.3,2.1,0.8,2.8
		s1.3,1.1,2.2,1.1c0.9,0,1.6-0.4,2.2-1.1s0.8-1.7,0.8-3c0-1.2-0.3-2.1-0.8-2.8s-1.3-1.1-2.2-1.1c-0.9,0-1.6,0.4-2.2,1.1
		S148,47.3,148,48.6z"/>
	<path class="st0" d="M163.9,46.1c0-0.5-0.2-0.9-0.6-1.2s-0.9-0.4-1.6-0.4c-0.6,0-1.2,0.2-1.6,0.5s-0.6,0.7-0.6,1.2h-1.8
		c0-0.9,0.4-1.7,1.2-2.3s1.7-0.9,2.9-0.9c1.2,0,2.2,0.3,2.9,0.8s1,1.3,1,2.3c0,0.5-0.1,0.9-0.4,1.3s-0.7,0.7-1.2,0.9
		c1.2,0.4,1.8,1.2,1.8,2.5c0,1-0.4,1.7-1.1,2.3c-0.7,0.6-1.7,0.8-3,0.8c-1.2,0-2.2-0.3-3-0.9s-1.2-1.4-1.2-2.4h1.8
		c0,0.5,0.2,1,0.7,1.3s1,0.6,1.7,0.6c0.7,0,1.2-0.2,1.7-0.5c0.4-0.3,0.6-0.7,0.6-1.2c0-0.6-0.2-1-0.5-1.3c-0.4-0.3-0.9-0.4-1.7-0.4
		h-1.8v-1.5h2C163.2,47.6,163.9,47.1,163.9,46.1z"/>
	<path class="st0" d="M168.1,52.3l0.6-0.8c0.7-0.9,1.1-2.3,1.2-4.1l0.2-4.2h6.8v9.1h1.4v4.6h-1.8v-3.1h-7.4v3.1h-1.8l0-4.6H168.1z
		 M170.3,52.3h4.9v-7.4h-3.3l-0.1,2.5C171.6,49.5,171.1,51.1,170.3,52.3z"/>
	<path class="st0" d="M186.8,53.8c-0.1-0.2-0.2-0.6-0.3-1.1c-0.8,0.9-1.8,1.3-3,1.3c-1,0-1.9-0.3-2.6-0.9s-1-1.3-1-2.2
		c0-1.1,0.4-2,1.3-2.6s2-0.9,3.5-0.9h1.8v-0.8c0-0.6-0.2-1.1-0.6-1.5s-0.9-0.6-1.7-0.6c-0.6,0-1.2,0.2-1.6,0.5s-0.7,0.7-0.7,1.2
		h-1.8c0-0.5,0.2-1,0.6-1.5s0.9-0.9,1.5-1.2s1.3-0.4,2.1-0.4c1.2,0,2.2,0.3,2.9,0.9s1,1.4,1.1,2.5v4.9c0,1,0.1,1.7,0.4,2.3v0.2
		H186.8z M183.8,52.4c0.6,0,1.1-0.1,1.6-0.4s0.9-0.7,1.1-1.1v-2.2h-1.4c-2.2,0-3.3,0.6-3.3,1.9c0,0.6,0.2,1,0.6,1.3
		S183.2,52.4,183.8,52.4z"/>
	<path class="st0" d="M199.8,53.8H198v-4.5h-4.9v4.5h-1.8V43.2h1.8v4.6h4.9v-4.6h1.8V53.8z"/>
	<path class="st0" d="M209.5,43.2h1.8v10.6h-1.8v-7.7l-4.9,7.7h-1.8V43.2h1.8v7.7L209.5,43.2z"/>
	<path class="st0" d="M218.6,54c-1.4,0-2.6-0.5-3.5-1.4s-1.3-2.2-1.3-3.8v-0.3c0-1,0.2-2,0.6-2.8s1-1.5,1.7-1.9s1.5-0.7,2.3-0.7
		c1.4,0,2.4,0.5,3.2,1.4s1.1,2.2,1.1,3.9V49h-7.2c0,1,0.3,1.9,0.9,2.5s1.3,1,2.2,1c0.6,0,1.2-0.1,1.6-0.4s0.8-0.6,1.2-1l1.1,0.9
		C221.7,53.3,220.4,54,218.6,54z M218.4,44.5c-0.7,0-1.3,0.3-1.8,0.8s-0.8,1.3-0.9,2.2h5.3v-0.1c-0.1-0.9-0.3-1.6-0.7-2.1
		S219.2,44.5,218.4,44.5z"/>
	<path class="st0" d="M234.4,43.8c1.3,0,2.4,0.4,3.2,1.3s1.2,2.1,1.2,3.5v0.2c0,1-0.2,1.9-0.6,2.7s-0.9,1.4-1.7,1.8S235,54,234.1,54
		c-1.4,0-2.6-0.5-3.4-1.4s-1.3-2.2-1.3-3.8v-0.9c0-2.2,0.4-4,1.2-5.3s2-2.1,3.6-2.4c0.9-0.2,1.5-0.4,1.8-0.6s0.5-0.6,0.5-1h1.5
		c0,0.8-0.2,1.4-0.6,1.9s-1,0.8-1.8,1l-1.3,0.3c-1.1,0.3-1.9,0.7-2.4,1.3s-0.9,1.4-1,2.4C231.9,44.4,233,43.8,234.4,43.8z
		 M234.1,45.3c-0.9,0-1.6,0.3-2.1,0.9s-0.8,1.4-0.8,2.5v0.2c0,1.1,0.3,2,0.8,2.7s1.2,1,2.1,1c0.9,0,1.6-0.3,2.1-1s0.8-1.6,0.8-2.9
		c0-1-0.3-1.8-0.8-2.4S235,45.3,234.1,45.3z"/>
	<path class="st0" d="M247.5,43.2h1.8v10.6h-1.8v-7.7l-4.9,7.7h-1.8V43.2h1.8v7.7L247.5,43.2z"/>
	<path class="st0" d="M258,46.1c0-0.5-0.2-0.9-0.6-1.2s-0.9-0.4-1.6-0.4c-0.6,0-1.2,0.2-1.6,0.5s-0.6,0.7-0.6,1.2h-1.8
		c0-0.9,0.4-1.7,1.2-2.3s1.7-0.9,2.9-0.9c1.2,0,2.2,0.3,2.9,0.8s1,1.3,1,2.3c0,0.5-0.1,0.9-0.4,1.3s-0.7,0.7-1.2,0.9
		c1.2,0.4,1.8,1.2,1.8,2.5c0,1-0.4,1.7-1.1,2.3c-0.7,0.6-1.7,0.8-3,0.8c-1.2,0-2.2-0.3-3-0.9s-1.2-1.4-1.2-2.4h1.8
		c0,0.5,0.2,1,0.7,1.3s1,0.6,1.7,0.6c0.7,0,1.2-0.2,1.7-0.5c0.4-0.3,0.6-0.7,0.6-1.2c0-0.6-0.2-1-0.5-1.3c-0.4-0.3-0.9-0.4-1.7-0.4
		h-1.8v-1.5h2C257.4,47.6,258,47.1,258,46.1z"/>
	<path class="st0" d="M271,53.8h-1.8v-4.5h-4.9v4.5h-1.8V43.2h1.8v4.6h4.9v-4.6h1.8V53.8z"/>
	<path class="st0" d="M278.3,54c-1.4,0-2.6-0.5-3.5-1.4s-1.3-2.2-1.3-3.8v-0.3c0-1,0.2-2,0.6-2.8s1-1.5,1.7-1.9s1.5-0.7,2.3-0.7
		c1.4,0,2.4,0.5,3.2,1.4s1.1,2.2,1.1,3.9V49h-7.2c0,1,0.3,1.9,0.9,2.5s1.3,1,2.2,1c0.6,0,1.2-0.1,1.6-0.4s0.8-0.6,1.2-1l1.1,0.9
		C281.4,53.3,280.1,54,278.3,54z M278.1,44.5c-0.7,0-1.3,0.3-1.8,0.8s-0.8,1.3-0.9,2.2h5.3v-0.1c-0.1-0.9-0.3-1.6-0.7-2.1
		S278.8,44.5,278.1,44.5z"/>
	<path class="st0" d="M288.7,52.5c0.6,0,1.2-0.2,1.7-0.6s0.7-0.9,0.8-1.5h1.7c0,0.6-0.2,1.2-0.6,1.7s-0.9,1-1.5,1.3s-1.3,0.5-2,0.5
		c-1.4,0-2.6-0.5-3.4-1.4s-1.3-2.3-1.3-3.9v-0.3c0-1,0.2-1.9,0.6-2.7s0.9-1.4,1.6-1.9s1.5-0.7,2.5-0.7c1.2,0,2.2,0.4,3,1.1
		s1.2,1.6,1.3,2.8h-1.7c-0.1-0.7-0.3-1.2-0.8-1.7s-1-0.7-1.7-0.7c-0.9,0-1.6,0.3-2.1,1s-0.8,1.6-0.8,2.9v0.3c0,1.2,0.3,2.2,0.8,2.8
		S287.8,52.5,288.7,52.5z"/>
	<path class="st0" d="M301.5,53.8c-0.1-0.2-0.2-0.6-0.3-1.1c-0.8,0.9-1.8,1.3-3,1.3c-1,0-1.9-0.3-2.6-0.9s-1-1.3-1-2.2
		c0-1.1,0.4-2,1.3-2.6s2-0.9,3.5-0.9h1.8v-0.8c0-0.6-0.2-1.1-0.6-1.5s-0.9-0.6-1.7-0.6c-0.6,0-1.2,0.2-1.6,0.5s-0.7,0.7-0.7,1.2
		h-1.8c0-0.5,0.2-1,0.6-1.5s0.9-0.9,1.5-1.2s1.3-0.4,2.1-0.4c1.2,0,2.2,0.3,2.9,0.9s1,1.4,1.1,2.5v4.9c0,1,0.1,1.7,0.4,2.3v0.2
		H301.5z M298.5,52.4c0.6,0,1.1-0.1,1.6-0.4s0.9-0.7,1.1-1.1v-2.2h-1.4c-2.2,0-3.3,0.6-3.3,1.9c0,0.6,0.2,1,0.6,1.3
		S297.9,52.4,298.5,52.4z"/>
	<path class="st0" d="M319.4,53.8h-1.8v-9.1h-4.9v9.1H311V43.2h8.5V53.8z"/>
	<path class="st0" d="M321.9,48.4c0-1,0.2-2,0.6-2.8s1-1.5,1.7-1.9s1.6-0.7,2.5-0.7c1.4,0,2.6,0.5,3.5,1.5s1.3,2.3,1.3,4v0.1
		c0,1-0.2,2-0.6,2.8s-1,1.5-1.7,1.9s-1.6,0.7-2.5,0.7c-1.4,0-2.6-0.5-3.5-1.5s-1.3-2.3-1.3-4V48.4z M323.7,48.6
		c0,1.2,0.3,2.1,0.8,2.8s1.3,1.1,2.2,1.1c0.9,0,1.6-0.4,2.2-1.1s0.8-1.7,0.8-3c0-1.2-0.3-2.1-0.8-2.8s-1.3-1.1-2.2-1.1
		c-0.9,0-1.6,0.4-2.2,1.1S323.7,47.3,323.7,48.6z"/>
	<path class="st0" d="M333,52.3l0.6-0.8c0.7-0.9,1.1-2.3,1.2-4.1l0.2-4.2h6.8v9.1h1.4v4.6h-1.8v-3.1h-7.4v3.1h-1.8l0-4.6H333z
		 M335.1,52.3h4.9v-7.4h-3.3l-0.1,2.5C336.5,49.5,336,51.1,335.1,52.3z"/>
	<path class="st0" d="M353.4,49.3H352v4.5h-1.8V43.2h1.8v4.5h1.2l3.6-4.5h2.2l-4.2,5.1l4.5,5.5H357L353.4,49.3z"/>
	<path class="st0" d="M369.5,43.2v10.6h-1.8v-9.1h-3.6l-0.2,4c-0.1,1.8-0.4,3.1-0.9,3.9s-1.3,1.2-2.3,1.2h-0.7v-1.6l0.5,0
		c0.6-0.1,1-0.4,1.3-1s0.4-1.7,0.5-3.4l0.2-4.5H369.5z"/>
	<path class="st0" d="M374.4,47.7h2.5c0.1-1.4,0.6-2.5,1.5-3.4s2-1.3,3.3-1.3c1.4,0,2.5,0.5,3.4,1.4c0.9,0.9,1.4,2.1,1.4,3.6l0,0.6
		c0,1-0.2,2-0.6,2.8s-1,1.5-1.7,1.9s-1.6,0.7-2.5,0.7c-1.4,0-2.5-0.4-3.3-1.3s-1.4-2-1.5-3.5h-2.5v4.6h-1.8V43.2h1.8V47.7z
		 M378.7,48.6c0,1.2,0.3,2.1,0.8,2.8s1.3,1.1,2.2,1.1s1.6-0.4,2.2-1.1s0.8-1.7,0.8-3c0-1.2-0.3-2.1-0.8-2.8s-1.3-1.1-2.2-1.1
		c-0.9,0-1.6,0.4-2.2,1.1S378.7,47.3,378.7,48.6z"/>
	<path class="st0" d="M396.7,53.8h-1.8v-3.8c-0.8,0.2-1.6,0.3-2.4,0.3c-1.3,0-2.3-0.3-3-1s-1-1.6-1.1-2.9v-3.2h1.8v3.2
		c0,1.6,0.8,2.4,2.3,2.4c0.8,0,1.6-0.1,2.4-0.3v-5.3h1.8V53.8z"/>
</g>
<path class="st1" d="M41,54.2c-4.5-5.2-7.3-11.2-8.3-17.7l-0.1-0.1c0,0,0.1,0,0.1,0c-0.3-1.9-0.4-3.8-0.4-5.8
	c0-8.7,2.8-16.5,8.3-23.1c-1.8-1.8-3.8-3.1-5.9-4c-2.1-0.9-4.2-1.4-6.1-1.5c-1.9-0.1-3.2-0.2-3.7-0.2H0.8H0v57.8h16.2H17V41.7
	l11.4,17.8h18.7C44.8,58,42.8,56.3,41,54.2z M27.7,20.6c0,0.1,0,0.3,0,0.4c0,0.1,0,0.2,0,0.3c0,0.1,0,0.2,0,0.3
	c-0.1,1.5-0.7,2.9-1.8,4.1c-1.1,1.3-3,1.9-5.8,1.9H17V14.4h3.1c2.7,0,4.6,0.6,5.7,1.8c1.1,1.2,1.7,2.5,1.9,4
	C27.7,20.3,27.7,20.5,27.7,20.6z"/>
<path class="st1" d="M43.7,51.9c-5.3-6.1-7.9-13.2-7.9-21.4c0-8.1,2.6-15.2,7.8-21.3C48.8,3.1,56.5,0,66.8,0h0.8
	c10.3,0,18,3.1,23.2,9.2c5.2,6.1,7.8,13.3,7.8,21.3c0,8.1-2.6,15.2-7.8,21.3c-5.2,6.1-13,9.1-23.2,9.2l-0.8,0.1
	C56.7,61.1,49,58,43.7,51.9z M68.9,47.1c0.6-0.1,1.2-0.2,1.8-0.5c2.6-0.7,5-2.3,7.2-4.8c2.2-2.5,3.3-6.3,3.3-11.3
	c0-5-1.1-8.8-3.3-11.3c-2.2-2.5-4.6-4.1-7.2-4.8c-0.6-0.2-1.2-0.3-1.8-0.4c-0.6-0.1-1.1-0.2-1.7-0.2c-0.6,0-1.2,0.1-1.9,0.2
	c-0.7,0.1-1.3,0.3-1.9,0.5c-2.5,0.8-4.9,2.4-7,4.9c-2.1,2.5-3.2,6.2-3.2,11.1c0,4.9,1.1,8.6,3.2,11.1c2.1,2.5,4.4,4.1,7,4.9
	c0.6,0.2,1.2,0.4,1.9,0.5c0.6,0.1,1.3,0.2,1.9,0.2C67.7,47.2,68.3,47.2,68.9,47.1z"/>
<path class="st1" d="M95.1,1.7h0.8h16.2v57.8h-0.8H95.1V1.7z"/>
</svg>
